# xmcd
#
# Track frame offsets: 
#        182
#        22847
#        37345
#        50197
#        67795
#        82072
#        95320
#        111945
#        128657
#        146640
#
# Disc length: 2286 seconds
#
# Revision: 7
# Processed by: cddbd v1.5.2PL0 Copyright (c) Steve Scherf et al.
# Submitted via: ExactAudioCopyFreeDBPlugin 1.0
#
DISCID=8808ec0a
DTITLE=Various Artist - The Stax-Volt Revue
DYEAR=1967
DGENRE=Soul
TTITLE0=Carla Thomas - Got My Mojo Working (Live in Paris)
TTITLE1=Carla Thomas - Let Me Be Good to You (Live in Paris)
TTITLE2=Carla Thomas - Gee Whiz (Live in Paris)
TTITLE3=Eddie Floyd - Raise Your Hand (Live in Paris)
TTITLE4=Eddie Floyd - Something You Got (Live in Paris)
TTITLE5=Eddie Floyd - But It's Alright (Live in Paris)
TTITLE6=Sam and Dave - Soothe Me (Live in Paris)
TTITLE7=Sam and Dave - You Don't Know Like I Know (Live in Paris)
TTITLE8=Sam and Dave - You Got Me Hummin' (Live in Paris)
TTITLE9=Otis Redding - Try a Little Tenderness (Live in Paris)
EXTD=YEAR: 1967
EXTT0=Carla Thomas
EXTT1=Carla Thomas
EXTT2=Carla Thomas
EXTT3=Eddie Floyd
EXTT4=Eddie Floyd
EXTT5=Eddie Floyd
EXTT6=Sam and Dave
EXTT7=Sam and Dave
EXTT8=Sam and Dave
EXTT9=Otis Redding
PLAYORDER=
